<svg width="212" height="212" viewBox="0 0 212 212" fill="none" xmlns="http://www.w3.org/2000/svg">
<path fill-rule="evenodd" clip-rule="evenodd" d="M28.7635 37.6224C25.3011 39.4994 22.7677 44.1046 22.7677 48.5196C22.7677 50.8571 23.78 52.8047 26.3051 55.3272C29.3607 58.3796 30.5333 58.8608 34.9186 58.8608C39.7689 58.8608 40.2839 59.1529 46.4941 65.4117L52.9935 71.9625L49.3885 79.7563C47.4065 84.0425 45.2061 90.6827 44.5007 94.5115L43.2158 101.473H34.0685C26.0023 101.473 24.7913 101.229 23.8143 99.4047C22.3401 96.6546 17.4044 94.1977 13.352 94.1977C8.52142 94.1977 3 99.9908 3 105.059C3 112.68 7.42484 117.063 15.1176 117.063C17.9548 117.063 19.66 116.218 22.4556 113.425C26.0231 109.861 26.2697 109.787 34.6023 109.787H43.1065L44.3269 117.452C44.999 121.668 47.0528 128.479 48.8922 132.587L52.235 140.057L45.0719 147.267C38.2343 154.151 37.6871 154.478 33.0198 154.478C23.8289 154.478 18.631 162.101 22.1257 170.457C23.2733 173.2 24.8339 174.759 27.5806 175.906C35.9454 179.397 43.5758 174.204 43.5758 165.021C43.5758 160.392 43.9285 159.786 50.2635 153.514L56.9502 146.892L63.5286 152.852C70.825 159.462 83.4909 166.092 92.2656 167.896C99.3206 169.346 112.65 169.349 119.734 167.903C128.214 166.173 141.386 159.244 148.608 152.715L155.05 146.892L161.737 153.514C168.072 159.786 168.424 160.392 168.424 165.021C168.424 174.204 176.055 179.397 184.419 175.906C187.166 174.759 188.727 173.2 189.874 170.457C193.369 162.101 188.171 154.478 178.98 154.478C174.313 154.478 173.766 154.151 166.928 147.267L159.765 140.057L163.108 132.587C164.947 128.479 167.001 121.668 167.673 117.452L168.893 109.787H177.398C185.73 109.787 185.977 109.861 189.544 113.425C192.392 116.27 194.023 117.063 197.031 117.063C204.425 117.063 209 112.436 209 104.958C209 99.9929 203.424 94.1977 198.648 94.1977C194.596 94.1977 189.66 96.6546 188.186 99.4047C187.209 101.229 185.998 101.473 177.931 101.473H168.784L167.499 94.4575C166.793 90.5985 164.56 83.9926 162.537 79.7771L158.858 72.1132L165.432 65.4865C171.721 59.1477 172.226 58.8608 177.081 58.8608C181.467 58.8608 182.639 58.3796 185.695 55.3272C189.68 51.3466 190.286 47.2818 187.654 42.1975C185.916 38.8384 181.291 35.9938 177.58 36C174.46 36.0052 168.881 39.436 167.352 42.291C166.689 43.5288 166.321 46.3599 166.533 48.583C166.893 52.3537 166.484 53.0563 160.466 59.0136L154.015 65.4023L148.024 60.0675C141.197 53.9896 127.868 47.0958 119.734 45.436C112.65 43.9903 99.3206 43.9934 92.2656 45.4433C83.9278 47.1571 70.8333 53.9002 64.0457 59.9771L57.9854 65.4023L51.5338 59.0136C45.5161 53.0563 45.1072 52.3537 45.4672 48.583C45.9427 43.6078 44.4487 40.6551 40.1279 38.0225C36.2014 35.6311 32.6671 35.5063 28.7635 37.6224ZM110.486 73.88C113.454 75.28 120.528 78.4811 126.205 80.9921C142.798 88.3318 142.231 91.0309 121.925 101.38C114.025 105.407 106.689 108.712 105.622 108.725C104.557 108.738 96.9339 105.357 88.6835 101.213C73.4707 93.572 71.4263 91.7563 73.1066 87.3808C73.4499 86.488 77.8311 83.9095 82.8427 81.6531C87.8543 79.3957 94.7636 76.178 98.197 74.5036C101.63 72.8282 104.585 71.4293 104.764 71.395C104.942 71.3607 107.517 72.479 110.486 73.88ZM91.4343 105.63C98.2833 109.06 104.506 111.866 105.262 111.866C106.019 111.866 112.157 109.005 118.902 105.509C129.633 99.9451 131.484 99.2945 133.7 100.303C136.516 101.585 138.207 105.061 137.44 107.991C136.971 109.781 110.149 124.366 105.843 125.172C104.014 125.515 77.5959 112.744 74.5278 110.035C72.0391 107.837 72.241 104.066 74.9845 101.513C76.2361 100.348 77.648 99.3943 78.1213 99.3943C78.5947 99.3943 84.5854 102.2 91.4343 105.63ZM105.125 127.456C106.538 127.456 113.009 124.695 119.504 121.321C132.351 114.647 134.652 114.462 137.133 119.903C139.069 124.147 136.574 126.307 120.232 134.542L105.136 142.149L89.1819 134.022C74.4612 126.526 73.2002 125.658 72.8756 122.806C72.6051 120.429 73.1919 119.183 75.4163 117.411L78.3086 115.108L90.4314 121.281C97.0994 124.678 103.711 127.456 105.125 127.456Z" fill="url(#paint0_linear_5_6)"/>
<defs>
<linearGradient id="paint0_linear_5_6" x1="3" y1="106.674" x2="209" y2="106.674" gradientUnits="userSpaceOnUse">
<stop stop-color="#F3008D"/>
<stop offset="1" stop-color="#00ECFE"/>
</linearGradient>
</defs>
</svg>
